# Tiled2Unity generated file. Do not modify by hand.
# Wavefront file for 'Novice_village_mesh_0005.obj'

# Vertices (Count = 116)
v -544 -464 0
v -560 -464 0
v -560 -448 0
v -544 -448 0
v -528 -464 0
v -544 -464 0
v -544 -448 0
v -528 -448 0
v -656 -480 0
v -672 -480 0
v -672 -464 0
v -656 -464 0
v -544 -480 0
v -560 -480 0
v -560 -464 0
v -544 -464 0
v -528 -480 0
v -544 -480 0
v -544 -464 0
v -528 -464 0
v -672 -496 0
v -688 -496 0
v -688 -480 0
v -672 -480 0
v -656 -496 0
v -672 -496 0
v -672 -480 0
v -656 -480 0
v -544 -496 0
v -560 -496 0
v -560 -480 0
v -544 -480 0
v -528 -496 0
v -544 -496 0
v -544 -480 0
v -528 -480 0
v -672 -512 0
v -688 -512 0
v -688 -496 0
v -672 -496 0
v -656 -512 0
v -672 -512 0
v -672 -496 0
v -656 -496 0
v -560 -640 0
v -576 -640 0
v -576 -624 0
v -560 -624 0
v -544 -640 0
v -560 -640 0
v -560 -624 0
v -544 -624 0
v -528 -640 0
v -544 -640 0
v -544 -624 0
v -528 -624 0
v -512 -640 0
v -528 -640 0
v -528 -624 0
v -512 -624 0
v -560 -656 0
v -576 -656 0
v -576 -640 0
v -560 -640 0
v -544 -656 0
v -560 -656 0
v -560 -640 0
v -544 -640 0
v -528 -656 0
v -544 -656 0
v -544 -640 0
v -528 -640 0
v -512 -656 0
v -528 -656 0
v -528 -640 0
v -512 -640 0
v -768 -768 0
v -784 -768 0
v -784 -752 0
v -768 -752 0
v -752 -768 0
v -768 -768 0
v -768 -752 0
v -752 -752 0
v -560 -816 0
v -576 -816 0
v -576 -800 0
v -560 -800 0
v -544 -816 0
v -560 -816 0
v -560 -800 0
v -544 -800 0
v -528 -816 0
v -544 -816 0
v -544 -800 0
v -528 -800 0
v -512 -816 0
v -528 -816 0
v -528 -800 0
v -512 -800 0
v -560 -832 0
v -576 -832 0
v -576 -816 0
v -560 -816 0
v -544 -832 0
v -560 -832 0
v -560 -816 0
v -544 -816 0
v -528 -832 0
v -544 -832 0
v -544 -816 0
v -528 -816 0
v -512 -832 0
v -528 -832 0
v -528 -816 0
v -512 -816 0

# Texture cooridinates (Count = 20)
vt 0.8933121 0.9305263
vt 0.9187898 0.9305263
vt 0.9187898 0.9642105
vt 0.8933121 0.9642105
vt 0.4601911 0.7873684
vt 0.4856688 0.7873684
vt 0.4856688 0.8210526
vt 0.4601911 0.8210526
vt 0.6226115 0.8231579
vt 0.6480892 0.8231579
vt 0.6480892 0.8568421
vt 0.6226115 0.8568421
vt 0.5955414 0.8231579
vt 0.6210191 0.8231579
vt 0.6210191 0.8568421
vt 0.5955414 0.8568421
vt 0.5684713 0.8231579
vt 0.593949 0.8231579
vt 0.593949 0.8568421
vt 0.5684713 0.8568421

# Normal
vn 0 0 -1

# Mesh description
g Novice_village_mesh_0005

# Faces
f 1/1/1 2/2/1 3/3/1 4/4/1
f 5/1/1 6/2/1 7/3/1 8/4/1
f 9/5/1 10/6/1 11/7/1 12/8/1
f 13/1/1 14/2/1 15/3/1 16/4/1
f 17/1/1 18/2/1 19/3/1 20/4/1
f 21/5/1 22/6/1 23/7/1 24/8/1
f 25/5/1 26/6/1 27/7/1 28/8/1
f 29/1/1 30/2/1 31/3/1 32/4/1
f 33/1/1 34/2/1 35/3/1 36/4/1
f 37/5/1 38/6/1 39/7/1 40/8/1
f 41/5/1 42/6/1 43/7/1 44/8/1
f 45/9/1 46/10/1 47/11/1 48/12/1
f 49/13/1 50/14/1 51/15/1 52/16/1
f 53/13/1 54/14/1 55/15/1 56/16/1
f 57/17/1 58/18/1 59/19/1 60/20/1
f 61/9/1 62/10/1 63/11/1 64/12/1
f 65/13/1 66/14/1 67/15/1 68/16/1
f 69/13/1 70/14/1 71/15/1 72/16/1
f 73/17/1 74/18/1 75/19/1 76/20/1
f 77/5/1 78/6/1 79/7/1 80/8/1
f 81/5/1 82/6/1 83/7/1 84/8/1
f 85/9/1 86/10/1 87/11/1 88/12/1
f 89/13/1 90/14/1 91/15/1 92/16/1
f 93/13/1 94/14/1 95/15/1 96/16/1
f 97/17/1 98/18/1 99/19/1 100/20/1
f 101/9/1 102/10/1 103/11/1 104/12/1
f 105/13/1 106/14/1 107/15/1 108/16/1
f 109/13/1 110/14/1 111/15/1 112/16/1
f 113/17/1 114/18/1 115/19/1 116/20/1

