# Tiled2Unity generated file. Do not modify by hand.
# Wavefront file for '???_mesh_0011.obj'

# Vertices (Count = 16)
v -624 -560 0
v -640 -560 0
v -640 -544 0
v -624 -544 0
v -608 -560 0
v -624 -560 0
v -624 -544 0
v -608 -544 0
v -624 -576 0
v -640 -576 0
v -640 -560 0
v -624 -560 0
v -608 -576 0
v -624 -576 0
v -624 -560 0
v -608 -560 0

# Texture cooridinates (Count = 16)
vt 0.9745223 0.8947368
vt 1 0.8947368
vt 1 0.928421
vt 0.9745223 0.928421
vt 0.9474522 0.8947368
vt 0.97293 0.8947368
vt 0.97293 0.928421
vt 0.9474522 0.928421
vt 0.9745223 0.8589474
vt 1 0.8589474
vt 1 0.8926316
vt 0.9745223 0.8926316
vt 0.9474522 0.8589474
vt 0.97293 0.8589474
vt 0.97293 0.8926316
vt 0.9474522 0.8926316

# Normal
vn 0 0 -1

# Mesh description
g ???_mesh_0011

# Faces
f 1/1/1 2/2/1 3/3/1 4/4/1
f 5/5/1 6/6/1 7/7/1 8/8/1
f 9/9/1 10/10/1 11/11/1 12/12/1
f 13/13/1 14/14/1 15/15/1 16/16/1

