# Tiled2Unity generated file. Do not modify by hand.
# Wavefront file for '???_mesh_0004.obj'

# Vertices (Count = 1032)
v -928 -192 0
v -944 -192 0
v -944 -176 0
v -928 -176 0
v -1088 -208 0
v -1104 -208 0
v -1104 -192 0
v -1088 -192 0
v -928 -208 0
v -944 -208 0
v -944 -192 0
v -928 -192 0
v -1088 -224 0
v -1104 -224 0
v -1104 -208 0
v -1088 -208 0
v -992 -224 0
v -1008 -224 0
v -1008 -208 0
v -992 -208 0
v -976 -224 0
v -992 -224 0
v -992 -208 0
v -976 -208 0
v -960 -224 0
v -976 -224 0
v -976 -208 0
v -960 -208 0
v -944 -224 0
v -960 -224 0
v -960 -208 0
v -944 -208 0
v -928 -224 0
v -944 -224 0
v -944 -208 0
v -928 -208 0
v -1088 -240 0
v -1104 -240 0
v -1104 -224 0
v -1088 -224 0
v -768 -240 0
v -784 -240 0
v -784 -224 0
v -768 -224 0
v -416 -240 0
v -432 -240 0
v -432 -224 0
v -416 -224 0
v -1088 -256 0
v -1104 -256 0
v -1104 -240 0
v -1088 -240 0
v -768 -256 0
v -784 -256 0
v -784 -240 0
v -768 -240 0
v -416 -256 0
v -432 -256 0
v -432 -240 0
v -416 -240 0
v -1088 -272 0
v -1104 -272 0
v -1104 -256 0
v -1088 -256 0
v -768 -272 0
v -784 -272 0
v -784 -256 0
v -768 -256 0
v -464 -272 0
v -480 -272 0
v -480 -256 0
v -464 -256 0
v -448 -272 0
v -464 -272 0
v -464 -256 0
v -448 -256 0
v -432 -272 0
v -448 -272 0
v -448 -256 0
v -432 -256 0
v -416 -272 0
v -432 -272 0
v -432 -256 0
v -416 -256 0
v -1088 -288 0
v -1104 -288 0
v -1104 -272 0
v -1088 -272 0
v -992 -304 0
v -1008 -304 0
v -1008 -288 0
v -992 -288 0
v -832 -304 0
v -848 -304 0
v -848 -288 0
v -832 -288 0
v -480 -304 0
v -496 -304 0
v -496 -288 0
v -480 -288 0
v -272 -304 0
v -288 -304 0
v -288 -288 0
v -272 -288 0
v -992 -320 0
v -1008 -320 0
v -1008 -304 0
v -992 -304 0
v -832 -320 0
v -848 -320 0
v -848 -304 0
v -832 -304 0
v -480 -320 0
v -496 -320 0
v -496 -304 0
v -480 -304 0
v -272 -320 0
v -288 -320 0
v -288 -304 0
v -272 -304 0
v -1120 -336 0
v -1136 -336 0
v -1136 -320 0
v -1120 -320 0
v -1104 -336 0
v -1120 -336 0
v -1120 -320 0
v -1104 -320 0
v -1088 -336 0
v -1104 -336 0
v -1104 -320 0
v -1088 -320 0
v -1072 -336 0
v -1088 -336 0
v -1088 -320 0
v -1072 -320 0
v -1056 -336 0
v -1072 -336 0
v -1072 -320 0
v -1056 -320 0
v -1040 -336 0
v -1056 -336 0
v -1056 -320 0
v -1040 -320 0
v -1024 -336 0
v -1040 -336 0
v -1040 -320 0
v -1024 -320 0
v -1008 -336 0
v -1024 -336 0
v -1024 -320 0
v -1008 -320 0
v -992 -336 0
v -1008 -336 0
v -1008 -320 0
v -992 -320 0
v -928 -336 0
v -944 -336 0
v -944 -320 0
v -928 -320 0
v -912 -336 0
v -928 -336 0
v -928 -320 0
v -912 -320 0
v -896 -336 0
v -912 -336 0
v -912 -320 0
v -896 -320 0
v -880 -336 0
v -896 -336 0
v -896 -320 0
v -880 -320 0
v -864 -336 0
v -880 -336 0
v -880 -320 0
v -864 -320 0
v -848 -336 0
v -864 -336 0
v -864 -320 0
v -848 -320 0
v -832 -336 0
v -848 -336 0
v -848 -320 0
v -832 -320 0
v -752 -336 0
v -768 -336 0
v -768 -320 0
v -752 -320 0
v -736 -336 0
v -752 -336 0
v -752 -320 0
v -736 -320 0
v -720 -336 0
v -736 -336 0
v -736 -320 0
v -720 -320 0
v -704 -336 0
v -720 -336 0
v -720 -320 0
v -704 -320 0
v -688 -336 0
v -704 -336 0
v -704 -320 0
v -688 -320 0
v -672 -336 0
v -688 -336 0
v -688 -320 0
v -672 -320 0
v -656 -336 0
v -672 -336 0
v -672 -320 0
v -656 -320 0
v -640 -336 0
v -656 -336 0
v -656 -320 0
v -640 -320 0
v -624 -336 0
v -640 -336 0
v -640 -320 0
v -624 -320 0
v -608 -336 0
v -624 -336 0
v -624 -320 0
v -608 -320 0
v -592 -336 0
v -608 -336 0
v -608 -320 0
v -592 -320 0
v -576 -336 0
v -592 -336 0
v -592 -320 0
v -576 -320 0
v -560 -336 0
v -576 -336 0
v -576 -320 0
v -560 -320 0
v -544 -336 0
v -560 -336 0
v -560 -320 0
v -544 -320 0
v -528 -336 0
v -544 -336 0
v -544 -320 0
v -528 -320 0
v -512 -336 0
v -528 -336 0
v -528 -320 0
v -512 -320 0
v -496 -336 0
v -512 -336 0
v -512 -320 0
v -496 -320 0
v -480 -336 0
v -496 -336 0
v -496 -320 0
v -480 -320 0
v -400 -336 0
v -416 -336 0
v -416 -320 0
v -400 -320 0
v -384 -336 0
v -400 -336 0
v -400 -320 0
v -384 -320 0
v -368 -336 0
v -384 -336 0
v -384 -320 0
v -368 -320 0
v -352 -336 0
v -368 -336 0
v -368 -320 0
v -352 -320 0
v -336 -336 0
v -352 -336 0
v -352 -320 0
v -336 -320 0
v -320 -336 0
v -336 -336 0
v -336 -320 0
v -320 -320 0
v -304 -336 0
v -320 -336 0
v -320 -320 0
v -304 -320 0
v -272 -336 0
v -288 -336 0
v -288 -320 0
v -272 -320 0
v -640 -352 0
v -656 -352 0
v -656 -336 0
v -640 -336 0
v -624 -352 0
v -640 -352 0
v -640 -336 0
v -624 -336 0
v -608 -352 0
v -624 -352 0
v -624 -336 0
v -608 -336 0
v -592 -352 0
v -608 -352 0
v -608 -336 0
v -592 -336 0
v -272 -352 0
v -288 -352 0
v -288 -336 0
v -272 -336 0
v -640 -368 0
v -656 -368 0
v -656 -352 0
v -640 -352 0
v -624 -368 0
v -640 -368 0
v -640 -352 0
v -624 -352 0
v -608 -368 0
v -624 -368 0
v -624 -352 0
v -608 -352 0
v -592 -368 0
v -608 -368 0
v -608 -352 0
v -592 -352 0
v -272 -368 0
v -288 -368 0
v -288 -352 0
v -272 -352 0
v -640 -384 0
v -656 -384 0
v -656 -368 0
v -640 -368 0
v -624 -384 0
v -640 -384 0
v -640 -368 0
v -624 -368 0
v -608 -384 0
v -624 -384 0
v -624 -368 0
v -608 -368 0
v -592 -384 0
v -608 -384 0
v -608 -368 0
v -592 -368 0
v -320 -384 0
v -336 -384 0
v -336 -368 0
v -320 -368 0
v -272 -384 0
v -288 -384 0
v -288 -368 0
v -272 -368 0
v -640 -400 0
v -656 -400 0
v -656 -384 0
v -640 -384 0
v -624 -400 0
v -640 -400 0
v -640 -384 0
v -624 -384 0
v -608 -400 0
v -624 -400 0
v -624 -384 0
v -608 -384 0
v -592 -400 0
v -608 -400 0
v -608 -384 0
v -592 -384 0
v -320 -400 0
v -336 -400 0
v -336 -384 0
v -320 -384 0
v -272 -400 0
v -288 -400 0
v -288 -384 0
v -272 -384 0
v -480 -416 0
v -496 -416 0
v -496 -400 0
v -480 -400 0
v -320 -416 0
v -336 -416 0
v -336 -400 0
v -320 -400 0
v -272 -416 0
v -288 -416 0
v -288 -400 0
v -272 -400 0
v -320 -432 0
v -336 -432 0
v -336 -416 0
v -320 -416 0
v -272 -432 0
v -288 -432 0
v -288 -416 0
v -272 -416 0
v -832 -448 0
v -848 -448 0
v -848 -432 0
v -832 -432 0
v -320 -448 0
v -336 -448 0
v -336 -432 0
v -320 -432 0
v -272 -448 0
v -288 -448 0
v -288 -432 0
v -272 -432 0
v -800 -464 0
v -816 -464 0
v -816 -448 0
v -800 -448 0
v -448 -464 0
v -464 -464 0
v -464 -448 0
v -448 -448 0
v -320 -464 0
v -336 -464 0
v -336 -448 0
v -320 -448 0
v -272 -464 0
v -288 -464 0
v -288 -448 0
v -272 -448 0
v -800 -480 0
v -816 -480 0
v -816 -464 0
v -800 -464 0
v -480 -480 0
v -496 -480 0
v -496 -464 0
v -480 -464 0
v -464 -480 0
v -480 -480 0
v -480 -464 0
v -464 -464 0
v -448 -480 0
v -464 -480 0
v -464 -464 0
v -448 -464 0
v -320 -480 0
v -336 -480 0
v -336 -464 0
v -320 -464 0
v -272 -480 0
v -288 -480 0
v -288 -464 0
v -272 -464 0
v -800 -496 0
v -816 -496 0
v -816 -480 0
v -800 -480 0
v -480 -496 0
v -496 -496 0
v -496 -480 0
v -480 -480 0
v -464 -496 0
v -480 -496 0
v -480 -480 0
v -464 -480 0
v -448 -496 0
v -464 -496 0
v -464 -480 0
v -448 -480 0
v -320 -496 0
v -336 -496 0
v -336 -480 0
v -320 -480 0
v -272 -496 0
v -288 -496 0
v -288 -480 0
v -272 -480 0
v -800 -512 0
v -816 -512 0
v -816 -496 0
v -800 -496 0
v -480 -512 0
v -496 -512 0
v -496 -496 0
v -480 -496 0
v -464 -512 0
v -480 -512 0
v -480 -496 0
v -464 -496 0
v -448 -512 0
v -464 -512 0
v -464 -496 0
v -448 -496 0
v -320 -512 0
v -336 -512 0
v -336 -496 0
v -320 -496 0
v -272 -512 0
v -288 -512 0
v -288 -496 0
v -272 -496 0
v -800 -528 0
v -816 -528 0
v -816 -512 0
v -800 -512 0
v -480 -528 0
v -496 -528 0
v -496 -512 0
v -480 -512 0
v -464 -528 0
v -480 -528 0
v -480 -512 0
v -464 -512 0
v -448 -528 0
v -464 -528 0
v -464 -512 0
v -448 -512 0
v -320 -528 0
v -336 -528 0
v -336 -512 0
v -320 -512 0
v -272 -528 0
v -288 -528 0
v -288 -512 0
v -272 -512 0
v -800 -544 0
v -816 -544 0
v -816 -528 0
v -800 -528 0
v -480 -544 0
v -496 -544 0
v -496 -528 0
v -480 -528 0
v -464 -544 0
v -480 -544 0
v -480 -528 0
v -464 -528 0
v -448 -544 0
v -464 -544 0
v -464 -528 0
v -448 -528 0
v -320 -544 0
v -336 -544 0
v -336 -528 0
v -320 -528 0
v -272 -544 0
v -288 -544 0
v -288 -528 0
v -272 -528 0
v -800 -560 0
v -816 -560 0
v -816 -544 0
v -800 -544 0
v -480 -560 0
v -496 -560 0
v -496 -544 0
v -480 -544 0
v -464 -560 0
v -480 -560 0
v -480 -544 0
v -464 -544 0
v -448 -560 0
v -464 -560 0
v -464 -544 0
v -448 -544 0
v -320 -560 0
v -336 -560 0
v -336 -544 0
v -320 -544 0
v -272 -560 0
v -288 -560 0
v -288 -544 0
v -272 -544 0
v -480 -576 0
v -496 -576 0
v -496 -560 0
v -480 -560 0
v -464 -576 0
v -480 -576 0
v -480 -560 0
v -464 -560 0
v -448 -576 0
v -464 -576 0
v -464 -560 0
v -448 -560 0
v -320 -576 0
v -336 -576 0
v -336 -560 0
v -320 -560 0
v -272 -576 0
v -288 -576 0
v -288 -560 0
v -272 -560 0
v -448 -592 0
v -464 -592 0
v -464 -576 0
v -448 -576 0
v -320 -592 0
v -336 -592 0
v -336 -576 0
v -320 -576 0
v -272 -592 0
v -288 -592 0
v -288 -576 0
v -272 -576 0
v -800 -608 0
v -816 -608 0
v -816 -592 0
v -800 -592 0
v -448 -608 0
v -464 -608 0
v -464 -592 0
v -448 -592 0
v -320 -608 0
v -336 -608 0
v -336 -592 0
v -320 -592 0
v -272 -608 0
v -288 -608 0
v -288 -592 0
v -272 -592 0
v -800 -624 0
v -816 -624 0
v -816 -608 0
v -800 -608 0
v -448 -624 0
v -464 -624 0
v -464 -608 0
v -448 -608 0
v -320 -624 0
v -336 -624 0
v -336 -608 0
v -320 -608 0
v -272 -624 0
v -288 -624 0
v -288 -608 0
v -272 -608 0
v -800 -640 0
v -816 -640 0
v -816 -624 0
v -800 -624 0
v -480 -640 0
v -496 -640 0
v -496 -624 0
v -480 -624 0
v -464 -640 0
v -480 -640 0
v -480 -624 0
v -464 -624 0
v -448 -640 0
v -464 -640 0
v -464 -624 0
v -448 -624 0
v -320 -640 0
v -336 -640 0
v -336 -624 0
v -320 -624 0
v -272 -640 0
v -288 -640 0
v -288 -624 0
v -272 -624 0
v -800 -656 0
v -816 -656 0
v -816 -640 0
v -800 -640 0
v -480 -656 0
v -496 -656 0
v -496 -640 0
v -480 -640 0
v -464 -656 0
v -480 -656 0
v -480 -640 0
v -464 -640 0
v -448 -656 0
v -464 -656 0
v -464 -640 0
v -448 -640 0
v -320 -656 0
v -336 -656 0
v -336 -640 0
v -320 -640 0
v -272 -656 0
v -288 -656 0
v -288 -640 0
v -272 -640 0
v -800 -672 0
v -816 -672 0
v -816 -656 0
v -800 -656 0
v -480 -672 0
v -496 -672 0
v -496 -656 0
v -480 -656 0
v -464 -672 0
v -480 -672 0
v -480 -656 0
v -464 -656 0
v -448 -672 0
v -464 -672 0
v -464 -656 0
v -448 -656 0
v -320 -672 0
v -336 -672 0
v -336 -656 0
v -320 -656 0
v -272 -672 0
v -288 -672 0
v -288 -656 0
v -272 -656 0
v -800 -688 0
v -816 -688 0
v -816 -672 0
v -800 -672 0
v -480 -688 0
v -496 -688 0
v -496 -672 0
v -480 -672 0
v -464 -688 0
v -480 -688 0
v -480 -672 0
v -464 -672 0
v -448 -688 0
v -464 -688 0
v -464 -672 0
v -448 -672 0
v -320 -688 0
v -336 -688 0
v -336 -672 0
v -320 -672 0
v -272 -688 0
v -288 -688 0
v -288 -672 0
v -272 -672 0
v -800 -704 0
v -816 -704 0
v -816 -688 0
v -800 -688 0
v -480 -704 0
v -496 -704 0
v -496 -688 0
v -480 -688 0
v -464 -704 0
v -480 -704 0
v -480 -688 0
v -464 -688 0
v -448 -704 0
v -464 -704 0
v -464 -688 0
v -448 -688 0
v -320 -704 0
v -336 -704 0
v -336 -688 0
v -320 -688 0
v -272 -704 0
v -288 -704 0
v -288 -688 0
v -272 -688 0
v -800 -720 0
v -816 -720 0
v -816 -704 0
v -800 -704 0
v -480 -720 0
v -496 -720 0
v -496 -704 0
v -480 -704 0
v -464 -720 0
v -480 -720 0
v -480 -704 0
v -464 -704 0
v -448 -720 0
v -464 -720 0
v -464 -704 0
v -448 -704 0
v -320 -720 0
v -336 -720 0
v -336 -704 0
v -320 -704 0
v -160 -720 0
v -176 -720 0
v -176 -704 0
v -160 -704 0
v -800 -736 0
v -816 -736 0
v -816 -720 0
v -800 -720 0
v -480 -736 0
v -496 -736 0
v -496 -720 0
v -480 -720 0
v -464 -736 0
v -480 -736 0
v -480 -720 0
v -464 -720 0
v -448 -736 0
v -464 -736 0
v -464 -720 0
v -448 -720 0
v -320 -736 0
v -336 -736 0
v -336 -720 0
v -320 -720 0
v -160 -736 0
v -176 -736 0
v -176 -720 0
v -160 -720 0
v -800 -752 0
v -816 -752 0
v -816 -736 0
v -800 -736 0
v -592 -752 0
v -608 -752 0
v -608 -736 0
v -592 -736 0
v -480 -752 0
v -496 -752 0
v -496 -736 0
v -480 -736 0
v -464 -752 0
v -480 -752 0
v -480 -736 0
v -464 -736 0
v -448 -752 0
v -464 -752 0
v -464 -736 0
v -448 -736 0
v -320 -752 0
v -336 -752 0
v -336 -736 0
v -320 -736 0
v -304 -752 0
v -320 -752 0
v -320 -736 0
v -304 -736 0
v -288 -752 0
v -304 -752 0
v -304 -736 0
v -288 -736 0
v -272 -752 0
v -288 -752 0
v -288 -736 0
v -272 -736 0
v -256 -752 0
v -272 -752 0
v -272 -736 0
v -256 -736 0
v -240 -752 0
v -256 -752 0
v -256 -736 0
v -240 -736 0
v -224 -752 0
v -240 -752 0
v -240 -736 0
v -224 -736 0
v -208 -752 0
v -224 -752 0
v -224 -736 0
v -208 -736 0
v -192 -752 0
v -208 -752 0
v -208 -736 0
v -192 -736 0
v -176 -752 0
v -192 -752 0
v -192 -736 0
v -176 -736 0
v -160 -752 0
v -176 -752 0
v -176 -736 0
v -160 -736 0
v -800 -768 0
v -816 -768 0
v -816 -752 0
v -800 -752 0
v -592 -768 0
v -608 -768 0
v -608 -752 0
v -592 -752 0
v -384 -768 0
v -400 -768 0
v -400 -752 0
v -384 -752 0
v -320 -768 0
v -336 -768 0
v -336 -752 0
v -320 -752 0
v -752 -784 0
v -768 -784 0
v -768 -768 0
v -752 -768 0
v -736 -784 0
v -752 -784 0
v -752 -768 0
v -736 -768 0
v -720 -784 0
v -736 -784 0
v -736 -768 0
v -720 -768 0
v -704 -784 0
v -720 -784 0
v -720 -768 0
v -704 -768 0
v -688 -784 0
v -704 -784 0
v -704 -768 0
v -688 -768 0
v -672 -784 0
v -688 -784 0
v -688 -768 0
v -672 -768 0
v -592 -784 0
v -608 -784 0
v -608 -768 0
v -592 -768 0
v -416 -784 0
v -432 -784 0
v -432 -768 0
v -416 -768 0
v -400 -784 0
v -416 -784 0
v -416 -768 0
v -400 -768 0
v -384 -784 0
v -400 -784 0
v -400 -768 0
v -384 -768 0
v -320 -784 0
v -336 -784 0
v -336 -768 0
v -320 -768 0
v -752 -800 0
v -768 -800 0
v -768 -784 0
v -752 -784 0
v -736 -800 0
v -752 -800 0
v -752 -784 0
v -736 -784 0
v -720 -800 0
v -736 -800 0
v -736 -784 0
v -720 -784 0
v -704 -800 0
v -720 -800 0
v -720 -784 0
v -704 -784 0
v -688 -800 0
v -704 -800 0
v -704 -784 0
v -688 -784 0
v -672 -800 0
v -688 -800 0
v -688 -784 0
v -672 -784 0
v -592 -800 0
v -608 -800 0
v -608 -784 0
v -592 -784 0
v -384 -800 0
v -400 -800 0
v -400 -784 0
v -384 -784 0
v -592 -816 0
v -608 -816 0
v -608 -800 0
v -592 -800 0
v -384 -816 0
v -400 -816 0
v -400 -800 0
v -384 -800 0
v -592 -832 0
v -608 -832 0
v -608 -816 0
v -592 -816 0
v -592 -848 0
v -608 -848 0
v -608 -832 0
v -592 -832 0
v -384 -848 0
v -400 -848 0
v -400 -832 0
v -384 -832 0
v -544 -864 0
v -560 -864 0
v -560 -848 0
v -544 -848 0
v -528 -864 0
v -544 -864 0
v -544 -848 0
v -528 -848 0
v -512 -864 0
v -528 -864 0
v -528 -848 0
v -512 -848 0
v -496 -864 0
v -512 -864 0
v -512 -848 0
v -496 -848 0
v -480 -864 0
v -496 -864 0
v -496 -848 0
v -480 -848 0
v -464 -864 0
v -480 -864 0
v -480 -848 0
v -464 -848 0
v -384 -864 0
v -400 -864 0
v -400 -848 0
v -384 -848 0
v -544 -880 0
v -560 -880 0
v -560 -864 0
v -544 -864 0
v -528 -880 0
v -544 -880 0
v -544 -864 0
v -528 -864 0
v -512 -880 0
v -528 -880 0
v -528 -864 0
v -512 -864 0
v -496 -880 0
v -512 -880 0
v -512 -864 0
v -496 -864 0
v -480 -880 0
v -496 -880 0
v -496 -864 0
v -480 -864 0
v -464 -880 0
v -480 -880 0
v -480 -864 0
v -464 -864 0
v -384 -880 0
v -400 -880 0
v -400 -864 0
v -384 -864 0

# Texture cooridinates (Count = 16)
vt 0.1053719 0.904943
vt 0.1219008 0.904943
vt 0.1219008 0.9353612
vt 0.1053719 0.9353612
vt 0.1053719 0.8726236
vt 0.1219008 0.8726236
vt 0.1219008 0.9030418
vt 0.1053719 0.9030418
vt 0.1229339 0.904943
vt 0.1394628 0.904943
vt 0.1394628 0.9353612
vt 0.1229339 0.9353612
vt 0.1229339 0.8726236
vt 0.1394628 0.8726236
vt 0.1394628 0.9030418
vt 0.1229339 0.9030418

# Normal
vn 0 0 -1

# Mesh description
g ???_mesh_0004

# Faces
f 1/1/1 2/2/1 3/3/1 4/4/1
f 5/5/1 6/6/1 7/7/1 8/8/1
f 9/1/1 10/2/1 11/3/1 12/4/1
f 13/5/1 14/6/1 15/7/1 16/8/1
f 17/5/1 18/6/1 19/7/1 20/8/1
f 21/1/1 22/2/1 23/3/1 24/4/1
f 25/1/1 26/2/1 27/3/1 28/4/1
f 29/5/1 30/6/1 31/7/1 32/8/1
f 33/1/1 34/2/1 35/3/1 36/4/1
f 37/5/1 38/6/1 39/7/1 40/8/1
f 41/1/1 42/2/1 43/3/1 44/4/1
f 45/5/1 46/6/1 47/7/1 48/8/1
f 49/5/1 50/6/1 51/7/1 52/8/1
f 53/1/1 54/2/1 55/3/1 56/4/1
f 57/5/1 58/6/1 59/7/1 60/8/1
f 61/5/1 62/6/1 63/7/1 64/8/1
f 65/5/1 66/6/1 67/7/1 68/8/1
f 69/1/1 70/2/1 71/3/1 72/4/1
f 73/1/1 74/2/1 75/3/1 76/4/1
f 77/1/1 78/2/1 79/3/1 80/4/1
f 81/1/1 82/2/1 83/3/1 84/4/1
f 85/5/1 86/6/1 87/7/1 88/8/1
f 89/5/1 90/6/1 91/7/1 92/8/1
f 93/5/1 94/6/1 95/7/1 96/8/1
f 97/1/1 98/2/1 99/3/1 100/4/1
f 101/5/1 102/6/1 103/7/1 104/8/1
f 105/5/1 106/6/1 107/7/1 108/8/1
f 109/5/1 110/6/1 111/7/1 112/8/1
f 113/1/1 114/2/1 115/3/1 116/4/1
f 117/1/1 118/2/1 119/3/1 120/4/1
f 121/5/1 122/6/1 123/7/1 124/8/1
f 125/5/1 126/6/1 127/7/1 128/8/1
f 129/5/1 130/6/1 131/7/1 132/8/1
f 133/5/1 134/6/1 135/7/1 136/8/1
f 137/5/1 138/6/1 139/7/1 140/8/1
f 141/5/1 142/6/1 143/7/1 144/8/1
f 145/5/1 146/6/1 147/7/1 148/8/1
f 149/5/1 150/6/1 151/7/1 152/8/1
f 153/5/1 154/6/1 155/7/1 156/8/1
f 157/5/1 158/6/1 159/7/1 160/8/1
f 161/1/1 162/2/1 163/3/1 164/4/1
f 165/5/1 166/6/1 167/7/1 168/8/1
f 169/5/1 170/6/1 171/7/1 172/8/1
f 173/1/1 174/2/1 175/3/1 176/4/1
f 177/5/1 178/6/1 179/7/1 180/8/1
f 181/5/1 182/6/1 183/7/1 184/8/1
f 185/1/1 186/2/1 187/3/1 188/4/1
f 189/5/1 190/6/1 191/7/1 192/8/1
f 193/5/1 194/6/1 195/7/1 196/8/1
f 197/1/1 198/2/1 199/3/1 200/4/1
f 201/5/1 202/6/1 203/7/1 204/8/1
f 205/5/1 206/6/1 207/7/1 208/8/1
f 209/5/1 210/6/1 211/7/1 212/8/1
f 213/5/1 214/6/1 215/7/1 216/8/1
f 217/1/1 218/2/1 219/3/1 220/4/1
f 221/1/1 222/2/1 223/3/1 224/4/1
f 225/5/1 226/6/1 227/7/1 228/8/1
f 229/1/1 230/2/1 231/3/1 232/4/1
f 233/1/1 234/2/1 235/3/1 236/4/1
f 237/5/1 238/6/1 239/7/1 240/8/1
f 241/5/1 242/6/1 243/7/1 244/8/1
f 245/5/1 246/6/1 247/7/1 248/8/1
f 249/1/1 250/2/1 251/3/1 252/4/1
f 253/5/1 254/6/1 255/7/1 256/8/1
f 257/5/1 258/6/1 259/7/1 260/8/1
f 261/5/1 262/6/1 263/7/1 264/8/1
f 265/5/1 266/6/1 267/7/1 268/8/1
f 269/1/1 270/2/1 271/3/1 272/4/1
f 273/1/1 274/2/1 275/3/1 276/4/1
f 277/5/1 278/6/1 279/7/1 280/8/1
f 281/5/1 282/6/1 283/7/1 284/8/1
f 285/5/1 286/6/1 287/7/1 288/8/1
f 289/9/1 290/10/1 291/11/1 292/12/1
f 293/5/1 294/6/1 295/7/1 296/8/1
f 297/5/1 298/6/1 299/7/1 300/8/1
f 301/9/1 302/10/1 303/11/1 304/12/1
f 305/1/1 306/2/1 307/3/1 308/4/1
f 309/13/1 310/14/1 311/15/1 312/16/1
f 313/5/1 314/6/1 315/7/1 316/8/1
f 317/1/1 318/2/1 319/3/1 320/4/1
f 321/13/1 322/14/1 323/15/1 324/16/1
f 325/5/1 326/6/1 327/7/1 328/8/1
f 329/13/1 330/14/1 331/15/1 332/16/1
f 333/5/1 334/6/1 335/7/1 336/8/1
f 337/5/1 338/6/1 339/7/1 340/8/1
f 341/9/1 342/10/1 343/11/1 344/12/1
f 345/13/1 346/14/1 347/15/1 348/16/1
f 349/1/1 350/2/1 351/3/1 352/4/1
f 353/13/1 354/14/1 355/15/1 356/16/1
f 357/5/1 358/6/1 359/7/1 360/8/1
f 361/1/1 362/2/1 363/3/1 364/4/1
f 365/13/1 366/14/1 367/15/1 368/16/1
f 369/13/1 370/14/1 371/15/1 372/16/1
f 373/5/1 374/6/1 375/7/1 376/8/1
f 377/13/1 378/14/1 379/15/1 380/16/1
f 381/9/1 382/10/1 383/11/1 384/12/1
f 385/1/1 386/2/1 387/3/1 388/4/1
f 389/13/1 390/14/1 391/15/1 392/16/1
f 393/1/1 394/2/1 395/3/1 396/4/1
f 397/13/1 398/14/1 399/15/1 400/16/1
f 401/13/1 402/14/1 403/15/1 404/16/1
f 405/1/1 406/2/1 407/3/1 408/4/1
f 409/13/1 410/14/1 411/15/1 412/16/1
f 413/13/1 414/14/1 415/15/1 416/16/1
f 417/9/1 418/10/1 419/11/1 420/12/1
f 421/5/1 422/6/1 423/7/1 424/8/1
f 425/13/1 426/14/1 427/15/1 428/16/1
f 429/13/1 430/14/1 431/15/1 432/16/1
f 433/13/1 434/14/1 435/15/1 436/16/1
f 437/9/1 438/10/1 439/11/1 440/12/1
f 441/13/1 442/14/1 443/15/1 444/16/1
f 445/1/1 446/2/1 447/3/1 448/4/1
f 449/9/1 450/10/1 451/11/1 452/12/1
f 453/13/1 454/14/1 455/15/1 456/16/1
f 457/13/1 458/14/1 459/15/1 460/16/1
f 461/13/1 462/14/1 463/15/1 464/16/1
f 465/9/1 466/10/1 467/11/1 468/12/1
f 469/1/1 470/2/1 471/3/1 472/4/1
f 473/13/1 474/14/1 475/15/1 476/16/1
f 477/13/1 478/14/1 479/15/1 480/16/1
f 481/13/1 482/14/1 483/15/1 484/16/1
f 485/9/1 486/10/1 487/11/1 488/12/1
f 489/13/1 490/14/1 491/15/1 492/16/1
f 493/1/1 494/2/1 495/3/1 496/4/1
f 497/13/1 498/14/1 499/15/1 500/16/1
f 501/13/1 502/14/1 503/15/1 504/16/1
f 505/13/1 506/14/1 507/15/1 508/16/1
f 509/9/1 510/10/1 511/11/1 512/12/1
f 513/13/1 514/14/1 515/15/1 516/16/1
f 517/1/1 518/2/1 519/3/1 520/4/1
f 521/13/1 522/14/1 523/15/1 524/16/1
f 525/13/1 526/14/1 527/15/1 528/16/1
f 529/13/1 530/14/1 531/15/1 532/16/1
f 533/9/1 534/10/1 535/11/1 536/12/1
f 537/9/1 538/10/1 539/11/1 540/12/1
f 541/1/1 542/2/1 543/3/1 544/4/1
f 545/13/1 546/14/1 547/15/1 548/16/1
f 549/13/1 550/14/1 551/15/1 552/16/1
f 553/13/1 554/14/1 555/15/1 556/16/1
f 557/13/1 558/14/1 559/15/1 560/16/1
f 561/13/1 562/14/1 563/15/1 564/16/1
f 565/5/1 566/6/1 567/7/1 568/8/1
f 569/13/1 570/14/1 571/15/1 572/16/1
f 573/13/1 574/14/1 575/15/1 576/16/1
f 577/13/1 578/14/1 579/15/1 580/16/1
f 581/13/1 582/14/1 583/15/1 584/16/1
f 585/5/1 586/6/1 587/7/1 588/8/1
f 589/9/1 590/10/1 591/11/1 592/12/1
f 593/13/1 594/14/1 595/15/1 596/16/1
f 597/5/1 598/6/1 599/7/1 600/8/1
f 601/13/1 602/14/1 603/15/1 604/16/1
f 605/13/1 606/14/1 607/15/1 608/16/1
f 609/13/1 610/14/1 611/15/1 612/16/1
f 613/5/1 614/6/1 615/7/1 616/8/1
f 617/9/1 618/10/1 619/11/1 620/12/1
f 621/9/1 622/10/1 623/11/1 624/12/1
f 625/13/1 626/14/1 627/15/1 628/16/1
f 629/1/1 630/2/1 631/3/1 632/4/1
f 633/13/1 634/14/1 635/15/1 636/16/1
f 637/13/1 638/14/1 639/15/1 640/16/1
f 641/13/1 642/14/1 643/15/1 644/16/1
f 645/13/1 646/14/1 647/15/1 648/16/1
f 649/13/1 650/14/1 651/15/1 652/16/1
f 653/1/1 654/2/1 655/3/1 656/4/1
f 657/13/1 658/14/1 659/15/1 660/16/1
f 661/13/1 662/14/1 663/15/1 664/16/1
f 665/13/1 666/14/1 667/15/1 668/16/1
f 669/13/1 670/14/1 671/15/1 672/16/1
f 673/9/1 674/10/1 675/11/1 676/12/1
f 677/1/1 678/2/1 679/3/1 680/4/1
f 681/9/1 682/10/1 683/11/1 684/12/1
f 685/13/1 686/14/1 687/15/1 688/16/1
f 689/13/1 690/14/1 691/15/1 692/16/1
f 693/13/1 694/14/1 695/15/1 696/16/1
f 697/13/1 698/14/1 699/15/1 700/16/1
f 701/1/1 702/2/1 703/3/1 704/4/1
f 705/13/1 706/14/1 707/15/1 708/16/1
f 709/13/1 710/14/1 711/15/1 712/16/1
f 713/13/1 714/14/1 715/15/1 716/16/1
f 717/13/1 718/14/1 719/15/1 720/16/1
f 721/13/1 722/14/1 723/15/1 724/16/1
f 725/5/1 726/6/1 727/7/1 728/8/1
f 729/13/1 730/14/1 731/15/1 732/16/1
f 733/13/1 734/14/1 735/15/1 736/16/1
f 737/13/1 738/14/1 739/15/1 740/16/1
f 741/13/1 742/14/1 743/15/1 744/16/1
f 745/9/1 746/10/1 747/11/1 748/12/1
f 749/5/1 750/6/1 751/7/1 752/8/1
f 753/13/1 754/14/1 755/15/1 756/16/1
f 757/13/1 758/14/1 759/15/1 760/16/1
f 761/13/1 762/14/1 763/15/1 764/16/1
f 765/13/1 766/14/1 767/15/1 768/16/1
f 769/13/1 770/14/1 771/15/1 772/16/1
f 773/1/1 774/2/1 775/3/1 776/4/1
f 777/9/1 778/10/1 779/11/1 780/12/1
f 781/13/1 782/14/1 783/15/1 784/16/1
f 785/13/1 786/14/1 787/15/1 788/16/1
f 789/13/1 790/14/1 791/15/1 792/16/1
f 793/9/1 794/10/1 795/11/1 796/12/1
f 797/1/1 798/2/1 799/3/1 800/4/1
f 801/9/1 802/10/1 803/11/1 804/12/1
f 805/9/1 806/10/1 807/11/1 808/12/1
f 809/13/1 810/14/1 811/15/1 812/16/1
f 813/13/1 814/14/1 815/15/1 816/16/1
f 817/13/1 818/14/1 819/15/1 820/16/1
f 821/13/1 822/14/1 823/15/1 824/16/1
f 825/1/1 826/2/1 827/3/1 828/4/1
f 829/5/1 830/6/1 831/7/1 832/8/1
f 833/5/1 834/6/1 835/7/1 836/8/1
f 837/1/1 838/2/1 839/3/1 840/4/1
f 841/5/1 842/6/1 843/7/1 844/8/1
f 845/5/1 846/6/1 847/7/1 848/8/1
f 849/5/1 850/6/1 851/7/1 852/8/1
f 853/1/1 854/2/1 855/3/1 856/4/1
f 857/1/1 858/2/1 859/3/1 860/4/1
f 861/1/1 862/2/1 863/3/1 864/4/1
f 865/9/1 866/10/1 867/11/1 868/12/1
f 869/13/1 870/14/1 871/15/1 872/16/1
f 873/13/1 874/14/1 875/15/1 876/16/1
f 877/9/1 878/10/1 879/11/1 880/12/1
f 881/13/1 882/14/1 883/15/1 884/16/1
f 885/13/1 886/14/1 887/15/1 888/16/1
f 889/13/1 890/14/1 891/15/1 892/16/1
f 893/13/1 894/14/1 895/15/1 896/16/1
f 897/13/1 898/14/1 899/15/1 900/16/1
f 901/13/1 902/14/1 903/15/1 904/16/1
f 905/9/1 906/10/1 907/11/1 908/12/1
f 909/13/1 910/14/1 911/15/1 912/16/1
f 913/13/1 914/14/1 915/15/1 916/16/1
f 917/13/1 918/14/1 919/15/1 920/16/1
f 921/9/1 922/10/1 923/11/1 924/12/1
f 925/13/1 926/14/1 927/15/1 928/16/1
f 929/13/1 930/14/1 931/15/1 932/16/1
f 933/13/1 934/14/1 935/15/1 936/16/1
f 937/13/1 938/14/1 939/15/1 940/16/1
f 941/13/1 942/14/1 943/15/1 944/16/1
f 945/13/1 946/14/1 947/15/1 948/16/1
f 949/13/1 950/14/1 951/15/1 952/16/1
f 953/13/1 954/14/1 955/15/1 956/16/1
f 957/13/1 958/14/1 959/15/1 960/16/1
f 961/9/1 962/10/1 963/11/1 964/12/1
f 965/9/1 966/10/1 967/11/1 968/12/1
f 969/13/1 970/14/1 971/15/1 972/16/1
f 973/9/1 974/10/1 975/11/1 976/12/1
f 977/13/1 978/14/1 979/15/1 980/16/1
f 981/13/1 982/14/1 983/15/1 984/16/1
f 985/13/1 986/14/1 987/15/1 988/16/1
f 989/13/1 990/14/1 991/15/1 992/16/1
f 993/13/1 994/14/1 995/15/1 996/16/1
f 997/13/1 998/14/1 999/15/1 1000/16/1
f 1001/13/1 1002/14/1 1003/15/1 1004/16/1
f 1005/13/1 1006/14/1 1007/15/1 1008/16/1
f 1009/13/1 1010/14/1 1011/15/1 1012/16/1
f 1013/13/1 1014/14/1 1015/15/1 1016/16/1
f 1017/13/1 1018/14/1 1019/15/1 1020/16/1
f 1021/13/1 1022/14/1 1023/15/1 1024/16/1
f 1025/13/1 1026/14/1 1027/15/1 1028/16/1
f 1029/13/1 1030/14/1 1031/15/1 1032/16/1

