# Tiled2Unity generated file. Do not modify by hand.
# Wavefront file for '???_mesh_0017.obj'

# Vertices (Count = 60)
v -848 -560 0
v -864 -560 0
v -864 -544 0
v -848 -544 0
v -848 -576 0
v -864 -576 0
v -864 -560 0
v -848 -560 0
v -848 -592 0
v -864 -592 0
v -864 -576 0
v -848 -576 0
v -656 -704 0
v -672 -704 0
v -672 -688 0
v -656 -688 0
v -656 -720 0
v -672 -720 0
v -672 -704 0
v -656 -704 0
v -656 -736 0
v -672 -736 0
v -672 -720 0
v -656 -720 0
v -576 -784 0
v -592 -784 0
v -592 -768 0
v -576 -768 0
v -576 -800 0
v -592 -800 0
v -592 -784 0
v -576 -784 0
v -576 -816 0
v -592 -816 0
v -592 -800 0
v -576 -800 0
v -656 -880 0
v -672 -880 0
v -672 -864 0
v -656 -864 0
v -576 -880 0
v -592 -880 0
v -592 -864 0
v -576 -864 0
v -656 -896 0
v -672 -896 0
v -672 -880 0
v -656 -880 0
v -576 -896 0
v -592 -896 0
v -592 -880 0
v -576 -880 0
v -656 -912 0
v -672 -912 0
v -672 -896 0
v -656 -896 0
v -576 -912 0
v -592 -912 0
v -592 -896 0
v -576 -896 0

# Texture cooridinates (Count = 8)
vt 0.1931818 0.8726236
vt 0.2097107 0.8726236
vt 0.2097107 0.9030418
vt 0.1931818 0.9030418
vt 0.1756198 0.8726236
vt 0.1921488 0.8726236
vt 0.1921488 0.9030418
vt 0.1756198 0.9030418

# Normal
vn 0 0 -1

# Mesh description
g ???_mesh_0017

# Faces
f 1/1/1 2/2/1 3/3/1 4/4/1
f 5/1/1 6/2/1 7/3/1 8/4/1
f 9/1/1 10/2/1 11/3/1 12/4/1
f 13/1/1 14/2/1 15/3/1 16/4/1
f 17/1/1 18/2/1 19/3/1 20/4/1
f 21/1/1 22/2/1 23/3/1 24/4/1
f 25/5/1 26/6/1 27/7/1 28/8/1
f 29/5/1 30/6/1 31/7/1 32/8/1
f 33/5/1 34/6/1 35/7/1 36/8/1
f 37/1/1 38/2/1 39/3/1 40/4/1
f 41/5/1 42/6/1 43/7/1 44/8/1
f 45/1/1 46/2/1 47/3/1 48/4/1
f 49/5/1 50/6/1 51/7/1 52/8/1
f 53/1/1 54/2/1 55/3/1 56/4/1
f 57/5/1 58/6/1 59/7/1 60/8/1

