# Tiled2Unity generated file. Do not modify by hand.
# Wavefront file for '???_mesh_0007.obj'

# Vertices (Count = 96)
v -992 -288 0
v -1008 -288 0
v -1008 -272 0
v -992 -272 0
v -992 -336 0
v -1008 -336 0
v -1008 -320 0
v -992 -320 0
v -832 -336 0
v -848 -336 0
v -848 -320 0
v -832 -320 0
v -480 -336 0
v -496 -336 0
v -496 -320 0
v -480 -320 0
v -992 -352 0
v -1008 -352 0
v -1008 -336 0
v -992 -336 0
v -832 -352 0
v -848 -352 0
v -848 -336 0
v -832 -336 0
v -480 -352 0
v -496 -352 0
v -496 -336 0
v -480 -336 0
v -992 -368 0
v -1008 -368 0
v -1008 -352 0
v -992 -352 0
v -832 -368 0
v -848 -368 0
v -848 -352 0
v -832 -352 0
v -480 -368 0
v -496 -368 0
v -496 -352 0
v -480 -352 0
v -992 -384 0
v -1008 -384 0
v -1008 -368 0
v -992 -368 0
v -832 -384 0
v -848 -384 0
v -848 -368 0
v -832 -368 0
v -480 -384 0
v -496 -384 0
v -496 -368 0
v -480 -368 0
v -992 -400 0
v -1008 -400 0
v -1008 -384 0
v -992 -384 0
v -832 -400 0
v -848 -400 0
v -848 -384 0
v -832 -384 0
v -480 -400 0
v -496 -400 0
v -496 -384 0
v -480 -384 0
v -992 -416 0
v -1008 -416 0
v -1008 -400 0
v -992 -400 0
v -832 -416 0
v -848 -416 0
v -848 -400 0
v -832 -400 0
v -992 -432 0
v -1008 -432 0
v -1008 -416 0
v -992 -416 0
v -832 -432 0
v -848 -432 0
v -848 -416 0
v -832 -416 0
v -384 -736 0
v -400 -736 0
v -400 -720 0
v -384 -720 0
v -384 -752 0
v -400 -752 0
v -400 -736 0
v -384 -736 0
v -384 -832 0
v -400 -832 0
v -400 -816 0
v -384 -816 0
v -384 -848 0
v -400 -848 0
v -400 -832 0
v -384 -832 0

# Texture cooridinates (Count = 24)
vt 0.5444215 0.5171102
vt 0.5609504 0.5171102
vt 0.5609504 0.5475285
vt 0.5444215 0.5475285
vt 0.5092975 0.5171102
vt 0.5258265 0.5171102
vt 0.5258265 0.5475285
vt 0.5092975 0.5475285
vt 0.5444215 0.4847909
vt 0.5609504 0.4847909
vt 0.5609504 0.5152091
vt 0.5444215 0.5152091
vt 0.4917355 0.4847909
vt 0.5082645 0.4847909
vt 0.5082645 0.5152091
vt 0.4917355 0.5152091
vt 0.6497934 0.3555133
vt 0.6663223 0.3555133
vt 0.6663223 0.3859316
vt 0.6497934 0.3859316
vt 0.6497934 0.3231939
vt 0.6663223 0.3231939
vt 0.6663223 0.3536122
vt 0.6497934 0.3536122

# Normal
vn 0 0 -1

# Mesh description
g ???_mesh_0007

# Faces
f 1/1/1 2/2/1 3/3/1 4/4/1
f 5/1/1 6/2/1 7/3/1 8/4/1
f 9/1/1 10/2/1 11/3/1 12/4/1
f 13/5/1 14/6/1 15/7/1 16/8/1
f 17/9/1 18/10/1 19/11/1 20/12/1
f 21/9/1 22/10/1 23/11/1 24/12/1
f 25/9/1 26/10/1 27/11/1 28/12/1
f 29/9/1 30/10/1 31/11/1 32/12/1
f 33/9/1 34/10/1 35/11/1 36/12/1
f 37/9/1 38/10/1 39/11/1 40/12/1
f 41/9/1 42/10/1 43/11/1 44/12/1
f 45/9/1 46/10/1 47/11/1 48/12/1
f 49/9/1 50/10/1 51/11/1 52/12/1
f 53/9/1 54/10/1 55/11/1 56/12/1
f 57/9/1 58/10/1 59/11/1 60/12/1
f 61/13/1 62/14/1 63/15/1 64/16/1
f 65/9/1 66/10/1 67/11/1 68/12/1
f 69/9/1 70/10/1 71/11/1 72/12/1
f 73/13/1 74/14/1 75/15/1 76/16/1
f 77/13/1 78/14/1 79/15/1 80/16/1
f 81/17/1 82/18/1 83/19/1 84/20/1
f 85/21/1 86/22/1 87/23/1 88/24/1
f 89/17/1 90/18/1 91/19/1 92/20/1
f 93/21/1 94/22/1 95/23/1 96/24/1

