# Tiled2Unity generated file. Do not modify by hand.
# Wavefront file for '???_mesh_0016.obj'

# Vertices (Count = 64)
v -928 -144 0
v -944 -144 0
v -944 -128 0
v -928 -128 0
v -928 -160 0
v -944 -160 0
v -944 -144 0
v -928 -144 0
v -928 -176 0
v -944 -176 0
v -944 -160 0
v -928 -160 0
v -928 -192 0
v -944 -192 0
v -944 -176 0
v -928 -176 0
v -768 -192 0
v -784 -192 0
v -784 -176 0
v -768 -176 0
v -416 -192 0
v -432 -192 0
v -432 -176 0
v -416 -176 0
v -768 -208 0
v -784 -208 0
v -784 -192 0
v -768 -192 0
v -416 -208 0
v -432 -208 0
v -432 -192 0
v -416 -192 0
v -768 -224 0
v -784 -224 0
v -784 -208 0
v -768 -208 0
v -416 -224 0
v -432 -224 0
v -432 -208 0
v -416 -208 0
v -768 -240 0
v -784 -240 0
v -784 -224 0
v -768 -224 0
v -416 -240 0
v -432 -240 0
v -432 -224 0
v -416 -224 0
v -160 -688 0
v -176 -688 0
v -176 -672 0
v -160 -672 0
v -160 -704 0
v -176 -704 0
v -176 -688 0
v -160 -688 0
v -160 -720 0
v -176 -720 0
v -176 -704 0
v -160 -704 0
v -160 -736 0
v -176 -736 0
v -176 -720 0
v -160 -720 0

# Texture cooridinates (Count = 4)
vt 0.1894905 0.3578947
vt 0.2149682 0.3578947
vt 0.2149682 0.391579
vt 0.1894905 0.391579

# Normal
vn 0 0 -1

# Mesh description
g ???_mesh_0016

# Faces
f 1/1/1 2/2/1 3/3/1 4/4/1
f 5/1/1 6/2/1 7/3/1 8/4/1
f 9/1/1 10/2/1 11/3/1 12/4/1
f 13/1/1 14/2/1 15/3/1 16/4/1
f 17/1/1 18/2/1 19/3/1 20/4/1
f 21/1/1 22/2/1 23/3/1 24/4/1
f 25/1/1 26/2/1 27/3/1 28/4/1
f 29/1/1 30/2/1 31/3/1 32/4/1
f 33/1/1 34/2/1 35/3/1 36/4/1
f 37/1/1 38/2/1 39/3/1 40/4/1
f 41/1/1 42/2/1 43/3/1 44/4/1
f 45/1/1 46/2/1 47/3/1 48/4/1
f 49/1/1 50/2/1 51/3/1 52/4/1
f 53/1/1 54/2/1 55/3/1 56/4/1
f 57/1/1 58/2/1 59/3/1 60/4/1
f 61/1/1 62/2/1 63/3/1 64/4/1

